<svg width="33" height="33" viewBox="0 0 33 33" fill="none" xmlns="http://www.w3.org/2000/svg">
<path fill-rule="evenodd" clip-rule="evenodd" d="M8.99249 23.6401C8.81937 23.6231 8.64701 23.5991 8.47581 23.5683C8.35007 23.5458 8.23249 23.4905 8.13491 23.4081C8.03732 23.3257 7.96317 23.219 7.91993 23.0988C7.87669 22.9786 7.86588 22.8491 7.88858 22.7234C7.91129 22.5977 7.96672 22.4802 8.04928 22.3828C8.44698 21.9139 8.71856 21.3514 8.83836 20.7484C8.86065 20.6369 8.81703 20.4411 8.59213 20.222C6.99265 18.6661 6 16.5558 6 14.2196C6 9.34357 10.2924 5.49512 15.4515 5.49512C20.6106 5.49512 24.903 9.34357 24.903 14.2196C24.903 19.0956 20.6106 22.944 15.4515 22.944C14.644 22.944 13.8588 22.85 13.1085 22.6736C11.8821 23.4443 10.4338 23.7844 8.99249 23.6401Z" fill="#033291"/>
<path d="M20.9102 13.1787C16.6736 13.1788 13.0344 16.3535 13.0342 20.5098C13.0342 24.6662 16.6735 27.8407 20.9102 27.8408C21.4648 27.8408 22.0069 27.7838 22.5312 27.6816C23.536 28.2351 24.6866 28.4742 25.833 28.3594V28.3584C25.908 28.351 25.983 28.3434 26.0576 28.333L26.2812 28.2969C26.5117 28.2556 26.7274 28.154 26.9062 28.0029C27.0849 27.8519 27.2205 27.6566 27.2998 27.4365C27.3791 27.2162 27.3991 26.9785 27.3574 26.748L27.3154 26.5781C27.2622 26.412 27.177 26.257 27.0635 26.123H27.0625L26.9863 26.0273C26.862 25.8603 26.7668 25.674 26.7021 25.4766C27.9827 24.1841 28.7871 22.4434 28.7871 20.5098C28.7869 16.3534 25.1468 13.1787 20.9102 13.1787Z" fill="white" stroke="#033291" stroke-width="1.57525"/>
</svg>
