<svg width="24" height="24" viewBox="0 0 24 24" fill="none" xmlns="http://www.w3.org/2000/svg">
<path d="M12 22.5C11.0333 22.5 10.2083 22.1583 9.525 21.475C8.84167 20.7917 8.5 19.9667 8.5 19V6C8.5 5.03333 8.84167 4.20833 9.525 3.525C10.2083 2.84167 11.0333 2.5 12 2.5H20.5C21.05 2.5 21.5208 2.69583 21.9125 3.0875C22.3042 3.47917 22.5 3.95 22.5 4.5V17.025C22.5 17.1583 22.4458 17.2792 22.3375 17.3875C22.2292 17.4958 22.0333 17.6167 21.75 17.75C21.5167 17.8667 21.3333 18.0333 21.2 18.25C21.0667 18.4667 21 18.7167 21 19C21 19.2833 21.0667 19.5375 21.2 19.7625C21.3333 19.9875 21.5167 20.15 21.75 20.25C21.9833 20.35 22.1667 20.4875 22.3 20.6625C22.4333 20.8375 22.5 21.025 22.5 21.225V21.475C22.5 21.7583 22.4042 22 22.2125 22.2C22.0208 22.4 21.7833 22.5 21.5 22.5H12ZM13.5 15.5C13.7833 15.5 14.0208 15.4042 14.2125 15.2125C14.4042 15.0208 14.5 14.7833 14.5 14.5V5.5C14.5 5.21667 14.4042 4.97917 14.2125 4.7875C14.0208 4.59583 13.7833 4.5 13.5 4.5C13.2167 4.5 12.9792 4.59583 12.7875 4.7875C12.5958 4.97917 12.5 5.21667 12.5 5.5V14.5C12.5 14.7833 12.5958 15.0208 12.7875 15.2125C12.9792 15.4042 13.2167 15.5 13.5 15.5ZM12 20.5H19.325C19.225 20.2667 19.1458 20.0292 19.0875 19.7875C19.0292 19.5458 19 19.2833 19 19C19 18.7333 19.025 18.475 19.075 18.225C19.125 17.975 19.2083 17.7333 19.325 17.5H12C11.5667 17.5 11.2083 17.6458 10.925 17.9375C10.6417 18.2292 10.5 18.5833 10.5 19C10.5 19.4333 10.6417 19.7917 10.925 20.075C11.2083 20.3583 11.5667 20.5 12 20.5Z" fill="currentColor"/>
</svg>
