<svg width="24" height="24" viewBox="0 0 24 24" fill="none" xmlns="http://www.w3.org/2000/svg">
<path d="M19.14 12.94C19.18 12.64 19.2 12.33 19.2 12C19.2 11.67 19.18 11.36 19.14 11.06L21.16 9.04C21.36 8.84 21.39 8.53 21.24 8.29L19.24 5.29C19.09 5.05 18.78 4.96 18.54 5.05L16.14 6.05C15.68 5.66 15.18 5.33 14.64 5.07L14.24 2.5C14.19 2.22 13.96 2 13.66 2H10.34C10.04 2 9.81 2.22 9.76 2.5L9.36 5.07C8.82 5.33 8.32 5.66 7.86 6.05L5.46 5.05C5.22 4.96 4.91 5.05 4.76 5.29L2.76 8.29C2.61 8.53 2.64 8.84 2.84 9.04L4.86 11.06C4.82 11.36 4.8 11.67 4.8 12C4.8 12.33 4.82 12.64 4.86 12.94L2.84 14.96C2.64 15.16 2.61 15.47 2.76 15.71L4.76 18.71C4.91 18.95 5.22 19.04 5.46 18.95L7.86 17.95C8.32 18.34 8.82 18.67 9.36 18.93L9.76 21.5C9.81 21.78 10.04 22 10.34 22H13.66C13.96 22 14.19 21.78 14.24 21.5L14.64 18.93C15.18 18.67 15.68 18.34 16.14 17.95L18.54 18.95C18.78 19.04 19.09 18.95 19.24 18.71L21.24 15.71C21.39 15.47 21.36 15.16 21.16 14.96L19.14 12.94ZM12 15.5C10.07 15.5 8.5 13.93 8.5 12C8.5 10.07 10.07 8.5 12 8.5C13.93 8.5 15.5 10.07 15.5 12C15.5 13.93 13.93 15.5 12 15.5Z" fill="currentColor"/>
</svg>
