<svg width="24" height="24" viewBox="0 0 24 24" fill="none" xmlns="http://www.w3.org/2000/svg">
<path d="M12 15.5C13.3833 15.5 14.5625 15.025 15.5375 14.075C16.5125 13.125 17 11.95 17 10.55C17 9.15 16.5125 7.975 15.5375 7.025C14.5625 6.075 13.3833 5.6 12 5.6C10.6167 5.6 9.4375 6.075 8.4625 7.025C7.4875 7.975 7 9.15 7 10.55C7 11.95 7.4875 13.125 8.4625 14.075C9.4375 15.025 10.6167 15.5 12 15.5ZM12 13.5C11.3 13.5 10.7083 13.2583 10.225 12.775C9.74167 12.2917 9.5 11.7 9.5 11C9.5 10.3 9.74167 9.70833 10.225 9.225C10.7083 8.74167 11.3 8.5 12 8.5C12.7 8.5 13.2917 8.74167 13.775 9.225C14.2583 9.70833 14.5 10.3 14.5 11C14.5 11.7 14.2583 12.2917 13.775 12.775C13.2917 13.2583 12.7 13.5 12 13.5Z" fill="currentColor"/>
</svg>
